<?xml version="1.0" encoding="UTF-8"?>
<svg id="Layer_2" data-name="Layer 2" xmlns="http://www.w3.org/2000/svg" viewBox="0 0 218.5 295.07">
  <defs>
    <style>
      .cls-1 {
        fill: none;
        stroke: #fff;
        stroke-miterlimit: 10;
        stroke-width: 2px;
      }
    </style>
  </defs>
  <g id="Layer_1-2" data-name="Layer 1">
    <g>
      <path class="cls-1" d="m217.43,186.67c0-.47.07-.93.07-1.4,0-17.64-4.31-34.23-11.79-48.95-1.85-3.79-3.98-7.38-6.26-10.86-.18-.27-.33-.55-.5-.81-1.68-2.51-3.51-4.91-5.42-7.24-.83-1.03-1.72-2.02-2.59-3.02-1.5-1.69-2.93-3.42-4.56-5.01-19.64-19.96-46.93-32.36-77.14-32.36-.59,0-1.15.08-1.74.09-1.78,0-3.53.17-5.29.27-2.12.14-4.24.29-6.33.55-2.09.26-4.16.56-6.23.95-3.43.63-6.79,1.42-10.09,2.36-.22.07-.44.1-.66.17-23.97,6.99-44.48,22.02-58.43,42.01-6.4,8.92-11.26,18.73-14.52,29.39-2.56,8.15-4.06,16.73-4.62,25.58-.12,1.76-.23,3.51-.27,5.26,0,.54-.08,1.07-.08,1.62,0,.62.08,1.22.09,1.84.03,2.99.18,5.95.45,8.9.02.16.02.32.04.49,3.75,38.94,28.1,73.02,65.42,89.05,13.28,5.7,27.21,8.5,41.68,8.51,38.33.01,67.95,0,106.28,0-16.45,0-1.12-.05,0-.1-12.91-14.71-14.57-15.81-28.14-32.44,2.67-3.16,5.36-6.13,7.8-9.29,15.06-19.56,23.06-41.52,22.8-65.55Zm-51.55,9.06l-.03.11-.03.12c-.14.58-1.4,5.69-2.32,8.61-6.54,22.41-15.54,39.62-15.92,40.35l-9.56,18.16-11.21-20.88-2.25-4.19c-6.97.94-13.87,1.42-20.52,1.42h-.28c-7.93,0-15.79-.7-23.34-2.09-17.72-3.25-28.85-15.03-29.75-31.52-.62-11.38,1.18-23.18,5.38-35.08,6.44-20.84,14.6-36.46,14.95-37.12l9.55-18.17,11.21,20.88,2.22,4.13c6.94-.94,13.82-1.41,20.45-1.42h.28c7.93,0,15.79.7,23.34,2.09,17.72,3.25,28.85,15.04,29.75,31.53.41,7.53-.24,15.28-1.94,23.06Z"/>
      <polygon class="cls-1" points="138.42 1.41 109.25 30.25 80.74 1.41 50.99 30.84 80.08 60.26 109.24 31.42 137.75 60.26 167.51 30.84 138.42 1.41"/>
    </g>
  </g>
</svg>